<svg xmlns="http://www.w3.org/2000/svg" viewBox="0 0 120 120" fill="none">
  <defs>
    <linearGradient id="claw-grad" x1="0%" y1="0%" x2="100%" y2="100%">
      <stop offset="0%" style="stop-color:#3b82f6"/>
      <stop offset="100%" style="stop-color:#d4af37"/>
    </linearGradient>
  </defs>
  <!-- Lobster claw body -->
  <path d="M60 100 C35 100 20 80 20 60 C20 40 30 25 45 20 C42 30 42 45 50 50 C48 35 50 20 60 15 C70 20 72 35 70 50 C78 45 78 30 75 20 C90 25 100 40 100 60 C100 80 85 100 60 100Z" fill="url(#claw-grad)" opacity="0.9"/>
  <!-- Upper left pincer -->
  <path d="M45 20 C35 10 25 5 15 10 C20 18 28 22 38 22 C40 21 43 20 45 20Z" fill="url(#claw-grad)"/>
  <!-- Upper right pincer -->
  <path d="M75 20 C85 10 95 5 105 10 C100 18 92 22 82 22 C80 21 77 20 75 20Z" fill="url(#claw-grad)"/>
  <!-- Eye left -->
  <circle cx="48" cy="45" r="4" fill="#050505"/>
  <circle cx="49" cy="44" r="1.5" fill="rgba(255,255,255,0.8)"/>
  <!-- Eye right -->
  <circle cx="72" cy="45" r="4" fill="#050505"/>
  <circle cx="73" cy="44" r="1.5" fill="rgba(255,255,255,0.8)"/>
</svg>
